<svg width="162" height="119" viewBox="0 0 162 119" fill="none" xmlns="http://www.w3.org/2000/svg">
<g clip-path="url(#clip0_201_3619)" filter="url(#filter0_d_201_3619)">
<path d="M74.64 110.97C56.2501 110.97 37.8601 110.97 19.4698 110.97C16.0612 110.97 12.652 110.997 9.24337 111C8.61887 111 7.99097 110.971 7.37055 110.911C6.98933 110.875 6.72838 110.648 6.67198 110.308C6.62109 110.004 6.5945 109.697 6.59247 109.389C6.58908 108.388 6.61286 107.385 6.60674 106.383C6.59519 104.228 6.57141 102.08 6.33493 99.9222C5.94808 96.3149 5.89622 92.6802 6.17999 89.0636C6.45656 85.4575 8.45171 82.4582 11.5851 80.0476C12.9075 79.0304 14.5282 78.6127 16.2699 78.5014C20.4477 78.2332 24.6242 78.0206 28.8238 78.1929C30.5077 78.26 32.1909 78.3472 33.8768 78.3505C54.2854 78.3952 74.6943 78.4158 95.1037 78.4122C95.9097 78.4122 96.7279 78.4471 97.5195 78.3452C98.4763 78.2211 99.1715 77.7343 99.3359 76.8626C99.4651 76.1807 99.618 75.4853 99.5962 74.8001C99.2782 64.781 99.5126 54.7606 99.4705 44.7415C99.4734 43.6618 99.4146 42.5827 99.2945 41.5095C99.1976 40.7409 99.0123 39.9857 98.742 39.2586C98.1053 37.5152 96.736 36.3827 94.6919 35.857C92.5854 35.3165 90.4156 35.1771 88.2472 35.057C87.5255 35.0177 86.8031 34.9953 86.0801 34.99C80.0111 34.9424 73.9421 34.87 67.8724 34.8451C65.0054 34.8337 62.1452 34.8029 59.3027 35.3273C55.1887 36.0856 51.8447 37.8686 49.1428 40.599C47.0872 42.6776 45.601 45.0419 44.4193 47.5551C43.1869 50.1747 42.2611 52.9244 41.6597 55.751C41.4826 56.5872 41.2506 57.4113 40.9652 58.2178C40.8676 58.4904 40.7122 58.7393 40.5095 58.948C40.3068 59.1567 40.0614 59.3204 39.7896 59.4281C38.1043 60.1342 36.7724 59.4188 36.7731 57.8095C36.7771 42.6246 36.7832 27.4398 36.7914 12.255C36.7914 11.3316 36.7819 10.4003 36.9137 9.48701C37.0551 8.51004 37.7108 7.97362 38.8504 7.83549C39.6441 7.7396 40.4596 7.75502 41.2655 7.75637C53.196 7.7805 65.127 7.80643 77.0585 7.83415C88.3615 7.84264 99.6646 7.83124 110.968 7.79995C111.862 7.79995 112.758 7.76776 113.65 7.70943C114.405 7.66048 115.009 7.173 115.138 6.56215C115.222 6.1538 115.352 5.55099 115.357 4.26961C115.357 3.74123 115.375 3.1753 115.407 2.04344C115.421 1.51641 115.432 1.24752 115.589 0.970594C115.949 0.332919 116.721 0.149864 116.976 0.0888454C117.868 -0.123042 119.219 0.0177693 119.671 0.798267C119.79 0.999426 119.761 1.64314 119.703 2.92452C119.677 3.50922 119.655 3.69563 119.658 4.15964C119.664 4.94751 119.726 4.81743 119.734 5.55568C119.734 5.97745 119.717 6.44548 119.905 6.94368C119.942 7.04701 119.995 7.1439 120.062 7.23067C120.334 7.57599 120.773 7.63299 120.86 7.64707C121.539 7.75368 122.244 7.44591 122.326 6.92759C122.409 6.39988 122.371 5.85474 122.379 5.31832C122.398 4.08722 122.379 2.85479 122.442 1.62503C122.478 0.950478 123.068 0.471048 123.788 0.387903C124.64 0.289335 125.487 0.64941 125.827 1.23277C126.124 1.73567 126.116 2.2741 126.135 2.81254C126.172 3.81364 126.141 4.82413 126.262 5.81518C126.431 7.2072 127.03 7.70071 128.702 7.75503C130.853 7.82543 133.007 7.78788 135.158 7.80263C136.235 7.81001 137.314 7.78453 138.386 7.85359C141.291 8.04201 142.407 8.86542 143.06 11.2981C143.264 12.0825 143.381 12.8865 143.409 13.6959C143.477 15.2542 143.47 16.8146 143.492 18.3742C143.497 18.7765 143.466 19.1789 143.48 19.5765C143.518 20.6869 144.614 21.5881 145.966 21.5928C147.904 21.6015 149.84 21.568 151.779 21.5975C153.456 21.6236 153.774 21.9254 153.837 23.4005C153.912 25.1741 153.107 26.9724 156.804 28.6595C156.893 34.9176 156.91 36.158 157 42.4161C153.142 44.0354 153.64 45.748 153.582 47.4451C153.508 49.6377 153.369 49.7651 150.763 49.7872C148.954 49.8027 147.143 49.7577 145.334 49.7792C144.506 49.7893 143.73 50.2533 143.578 50.9191C143.442 51.5058 143.453 52.1167 143.452 52.7181C143.447 60.2178 143.447 67.7172 143.452 75.2165C143.452 75.7609 143.613 76.6333 143.724 77.1697C144.064 78.779 143.86 80.4164 143.866 82.0384C143.906 90.5944 143.92 99.1504 143.909 107.706C143.909 108.41 143.856 109.129 143.686 109.813C143.537 110.409 142.921 110.844 142.182 110.882C141.556 110.914 140.928 110.919 140.301 110.917C129.088 110.879 117.876 111.003 106.663 110.804C99.1151 110.678 88.3171 110.616 74.64 110.97Z" fill="#384392"/>
<path d="M27 34.7941C27 42.9974 27 51.2007 27 59.404C27 62.8925 26.803 63.0661 23.024 62.9869C19.6461 62.918 16.2662 62.9131 12.8889 62.8201C11.6211 62.785 10.356 62.6424 9.09083 62.5197C7.32473 62.3482 5.66302 61.4952 4.84037 60.0979C4.13525 58.9004 4.03545 57.6477 4.03414 56.3648C4.02758 48.2421 4.00197 40.1187 4 31.996C4 26.2084 4.02823 20.4152 4.03414 14.6241C4.03414 12.8327 4.21403 11.1102 5.88231 9.44139C6.9702 8.35413 8.50848 7.70026 10.1157 7.42122C11.5371 7.17386 12.969 7.00781 14.399 7.0023C18.2069 6.98025 22.0182 7.1215 25.8274 7.21658C26.436 7.23174 26.956 7.65548 26.9744 8.19497C27.0046 9.09895 26.9488 10.0036 26.9481 10.9083C26.9455 18.8704 26.9455 26.8326 26.9481 34.7948L27 34.7941Z" fill="#384392"/>
<path d="M29.0003 38.5444C29.0003 31.7281 29.0003 24.9117 29.0003 18.0954C29.0003 17.2247 28.989 16.3487 29.1044 15.4848C29.2115 14.6843 29.8769 14.1993 30.8334 14.0653C31.1297 14.0314 31.428 14.013 31.7266 14.0102C34.216 13.9184 34.9252 14.4244 34.987 16.4589C35.03 17.8838 34.9523 19.3115 34.9538 20.7379C34.9659 33.5775 34.979 46.4173 34.9931 59.2574C34.9931 60.0478 34.9931 60.847 34.849 61.6251C34.7049 62.4032 33.9905 62.8787 33.0264 62.9726C32.631 63.0035 32.2337 63.0083 31.8375 62.9868C29.6498 62.9066 29.0305 62.4604 29.0184 60.6565C28.9867 55.9803 29.035 51.304 29.0456 46.6277C29.0516 43.9328 29.0456 41.238 29.0456 38.5431L29.0003 38.5444Z" fill="#384392"/>
<path d="M88.3299 16C102.471 16 116.611 16.0018 130.752 16.0053C131.62 16.0053 132.5 16.02 133.353 16.1444C134.196 16.2668 134.776 16.7664 134.856 17.5562C134.951 18.4823 134.999 19.4128 135 20.3439C134.989 30.9818 134.971 41.6196 134.946 52.2571C134.94 60.7978 134.965 69.3391 134.97 77.8805C134.97 78.6562 134.97 79.436 134.883 80.2091C134.785 81.058 134.302 81.4732 133.394 81.5836C132.964 81.6355 132.524 81.6242 132.088 81.6255C126.764 81.6422 121.437 81.5843 116.125 81.9662C115.777 81.9957 115.427 82.0059 115.078 81.9968C113.644 81.9409 113.052 81.4426 112.899 80.1519C112.864 79.765 112.853 79.3764 112.865 78.9882C112.907 68.3505 112.927 57.7134 113.004 47.0763C113.039 42.2634 113.193 37.4512 113.277 32.6389C113.289 31.9437 113.277 31.2417 113.16 30.5545C113.038 29.8452 112.532 29.4627 111.745 29.3895C111.139 29.3336 110.525 29.3376 109.915 29.3389C91.1481 29.3895 72.3823 29.4456 53.6173 29.5073C51.0016 29.5172 48.3858 29.6769 45.7701 29.7681C45.2468 29.786 44.7228 29.8346 44.2009 29.824C42.7614 29.788 42.1283 29.2757 42.0403 27.999C41.9741 27.0196 42.0714 26.0323 42.0403 25.0503C41.9741 23.0723 42.0264 21.093 42.0099 19.1143C42.0099 18.6606 41.9788 18.2042 42.0271 17.7544C42.1382 16.7112 42.6429 16.2342 43.8231 16.0765C44.3372 16.01 44.8671 16.0186 45.3897 16.0186C59.7046 16.016 74.0198 16.016 88.3352 16.0186L88.3299 16Z" fill="white"/>
<path d="M89.3165 22.45C102.851 22.017 116.386 22.0301 129.92 22C131.572 21.9962 131.96 22.2455 132 24.0721C132.006 24.3993 131.915 24.735 131.826 25.0553C131.679 25.5847 131.308 25.9319 130.741 25.9898C130.227 26.0431 129.703 26.0161 129.184 27L49.5163 26.9491C49.4913 26.7268 49.4242 26.4243 49.2203 26.226C48.8605 25.8756 48.4145 26.1789 47.6417 26.0245C47.347 25.9659 46.8524 25.8702 46.4965 25.4542C45.9302 24.8021 45.8328 23.5188 46.2847 22.8559C46.7734 22.1382 47.8272 22.2547 48.1264 22.2802C50.3135 22.4654 66.5005 22.4909 89.3165 22.45Z" fill="#E6452E"/>
<path d="M130 35.6294C130.007 38.4217 129.122 40.2287 127.459 41.6482C125.466 43.3487 122.979 43.4628 120.887 41.8887C116.453 38.5522 117.684 32.3555 120.839 30.0531C122.989 28.4838 125.914 28.679 127.818 30.5677C129.376 32.1109 130.008 34.0375 130 35.6294Z" fill="#E5432D"/>
<path d="M130 72.5239C129.972 74.9795 129.127 76.6491 127.426 77.8778C124.906 79.6995 121.466 79.2542 119.464 76.8985C116.668 73.6058 118.048 68.1886 122.151 66.4198C123.651 65.7734 125.155 65.8642 126.504 66.7567C128.757 68.2467 129.904 70.336 130 72.5239Z" fill="#E5442C"/>
<path d="M129.995 54.6565C129.867 57.1361 128.816 59.0941 126.601 60.3005C124.689 61.3395 122.769 61.2009 120.941 60.0185C118.731 58.5896 117.555 55.6922 118.156 53.1416C118.382 52.1944 118.775 51.3088 119.312 50.5384C122.01 46.6142 127.031 47.671 128.937 50.7848C129.66 51.9673 130.047 53.2474 129.995 54.6565Z" fill="#E6442C"/>
<path d="M30.8325 74.4173C30.737 75.0964 30.5017 75.4362 30.396 75.5669C29.9235 76.1545 29.2725 76.0135 28.7102 75.8917C28.3869 75.8229 28.0871 75.7541 27.7973 75.4218C27.7341 75.353 27.5158 75.0888 27.3159 74.4531C27.131 73.8502 27.0399 73.2179 27.0464 72.5824C27.0464 71.344 27.0199 70.1056 27.0097 68.8714C27.0028 67.9935 26.9863 67.4796 27.023 66.5907C27.0667 65.5222 27.1597 65.1101 27.2514 64.7069C27.4045 64.0361 27.6537 63.5601 27.9846 63.2855C28.645 62.7352 29.4104 63.1342 29.5756 63.2216C29.7834 63.3332 29.9728 63.4815 30.136 63.6605C30.2929 63.8906 30.4221 64.1414 30.5207 64.407C30.639 64.7214 30.7073 65.0303 30.7914 65.6557C30.9179 66.5907 30.9508 67.2436 30.9508 67.2436C31.0033 68.2886 30.9875 68.729 30.9989 70.8618C31.0052 72.0004 30.9843 72.5473 30.9356 73.2594C30.9027 73.7396 30.8635 74.138 30.8325 74.4173Z" fill="#384392"/>
<g filter="url(#filter1_d_201_3619)">
<path d="M24.344 94.0195H21.4292C21.4382 93.6327 21.3888 93.2908 21.2808 92.994C21.1729 92.6926 21.0109 92.4362 20.795 92.2248C20.5836 92.0134 20.325 91.8537 20.0191 91.7457C19.7132 91.6333 19.3691 91.5771 18.9868 91.5771C18.2491 91.5771 17.5721 91.7615 16.9559 92.1303C16.3396 92.4992 15.8201 93.0344 15.3973 93.7362C14.9745 94.4334 14.6821 95.2768 14.5202 96.2663C14.3627 97.2199 14.3717 98.0183 14.5471 98.6616C14.7226 99.3048 15.0329 99.7906 15.4782 100.119C15.9281 100.443 16.4881 100.605 17.1583 100.605C17.5721 100.605 17.9657 100.553 18.339 100.45C18.7124 100.342 19.052 100.189 19.3579 99.9908C19.6682 99.7884 19.9381 99.5432 20.1675 99.2553C20.4014 98.9674 20.5836 98.6413 20.714 98.277H23.6491C23.4646 98.9112 23.1768 99.523 22.7854 100.112C22.3986 100.701 21.9195 101.228 21.3483 101.691C20.777 102.15 20.127 102.514 19.3983 102.784C18.6697 103.054 17.8712 103.189 17.0031 103.189C15.7481 103.189 14.6708 102.901 13.7712 102.325C12.8761 101.75 12.2306 100.92 11.8348 99.8356C11.439 98.7515 11.3647 97.4448 11.6121 95.9155C11.8595 94.4356 12.3431 93.1806 13.0628 92.1506C13.787 91.116 14.6663 90.3311 15.7009 89.7958C16.74 89.2605 17.851 88.9929 19.034 88.9929C19.8572 88.9929 20.6016 89.1053 21.2673 89.3303C21.933 89.5552 22.4998 89.8835 22.9676 90.3153C23.4399 90.7427 23.7952 91.2667 24.0336 91.8874C24.272 92.5082 24.3755 93.2189 24.344 94.0195ZM27.0834 103H23.9527L31.017 89.1818H34.7819L37.2513 103H34.1206L32.4406 92.3395H32.3327L27.0834 103ZM27.7986 97.5685H35.1934L34.8021 99.8491H27.4072L27.7986 97.5685ZM47.7145 93.1964C47.737 92.6341 47.5728 92.2 47.2219 91.8942C46.8756 91.5883 46.3516 91.4354 45.6499 91.4354C45.1731 91.4354 44.7592 91.5028 44.4084 91.6378C44.0575 91.7682 43.7764 91.9504 43.565 92.1843C43.3581 92.4137 43.2299 92.6791 43.1804 92.9805C43.1309 93.2279 43.1467 93.4438 43.2276 93.6282C43.3131 93.8126 43.4458 93.9723 43.6257 94.1072C43.8101 94.2377 44.0283 94.3524 44.2802 94.4513C44.5321 94.5458 44.7997 94.6268 45.0831 94.6942L46.2706 94.9911C46.8509 95.1261 47.3726 95.306 47.8359 95.5309C48.3037 95.7558 48.6951 96.0324 49.0099 96.3608C49.3293 96.6892 49.5542 97.076 49.6847 97.5213C49.8151 97.9666 49.8331 98.4772 49.7386 99.0529C49.5947 99.8986 49.2596 100.632 48.7333 101.252C48.207 101.869 47.5166 102.348 46.6619 102.69C45.8073 103.027 44.8177 103.196 43.6932 103.196C42.5777 103.196 41.6353 103.025 40.8661 102.683C40.0969 102.341 39.5369 101.835 39.1861 101.165C38.8397 100.49 38.7363 99.6557 38.8757 98.6616H41.7028C41.6533 99.1249 41.7208 99.5117 41.9052 99.8221C42.0941 100.128 42.3752 100.36 42.7486 100.517C43.1219 100.67 43.5605 100.746 44.0643 100.746C44.5636 100.746 45.0066 100.674 45.3935 100.531C45.7848 100.387 46.1019 100.186 46.3448 99.93C46.5877 99.6737 46.7362 99.379 46.7901 99.0462C46.8441 98.7358 46.7969 98.4749 46.6484 98.2635C46.5 98.0521 46.2616 97.8722 45.9332 97.7237C45.6094 97.5708 45.2068 97.4358 44.7255 97.3189L43.2816 96.9411C42.1661 96.6577 41.3227 96.2146 40.7514 95.6119C40.1802 95.0091 39.9755 94.1972 40.1374 93.1761C40.2814 92.3395 40.63 91.6085 41.1832 90.9833C41.741 90.3536 42.4427 89.8655 43.2884 89.5192C44.1385 89.1683 45.0674 88.9929 46.0749 88.9929C47.1005 88.9929 47.9664 89.1706 48.6726 89.5259C49.3788 89.8768 49.8938 90.3671 50.2177 90.9968C50.5415 91.6265 50.6405 92.3597 50.5146 93.1964H47.7145ZM53.1156 103H49.9849L57.0492 89.1818H60.8141L63.2836 103H60.1529L58.4728 92.3395H58.3649L53.1156 103ZM53.8308 97.5685H61.2257L60.8343 99.8491H53.4395L53.8308 97.5685ZM70.7071 91.5906L71.1119 89.1818H82.4607L82.0558 91.5906H77.8254L75.9362 103H73.0484L74.9376 91.5906H70.7071ZM95.2229 96.2798C94.971 97.7552 94.483 99.0079 93.7588 100.038C93.0391 101.068 92.1597 101.851 91.1206 102.386C90.0861 102.921 88.9706 103.189 87.7741 103.189C86.5191 103.189 85.4373 102.903 84.5287 102.332C83.6246 101.761 82.9701 100.935 82.5653 99.8558C82.1604 98.7718 82.084 97.4651 82.3358 95.9357C82.5787 94.4558 83.0623 93.2009 83.7865 92.1708C84.5107 91.1362 85.3946 90.3491 86.4381 89.8093C87.4817 89.265 88.604 88.9929 89.805 88.9929C91.0509 88.9929 92.126 89.2808 93.0301 89.8565C93.9387 90.4323 94.5932 91.2644 94.9935 92.353C95.3983 93.437 95.4748 94.746 95.2229 96.2798ZM92.3149 95.9357C92.4723 94.9866 92.4656 94.1905 92.2947 93.5472C92.1282 92.8995 91.8224 92.4092 91.377 92.0763C90.9317 91.7435 90.3695 91.5771 89.6903 91.5771C88.9526 91.5771 88.2756 91.7615 87.6594 92.1303C87.0476 92.4992 86.5303 93.0344 86.1075 93.7362C85.6892 94.4334 85.3991 95.2812 85.2371 96.2798C85.0752 97.2334 85.0797 98.0296 85.2506 98.6683C85.426 99.3071 85.7387 99.7906 86.1885 100.119C86.6428 100.443 87.2073 100.605 87.882 100.605C88.6152 100.605 89.2854 100.425 89.8927 100.065C90.5044 99.7006 91.0194 99.1721 91.4378 98.4794C91.8561 97.7822 92.1485 96.9343 92.3149 95.9357ZM98.5611 89.1818H102.164L104.438 98.4659H104.6L109.937 89.1818H113.54L111.246 103H108.412L109.91 94.006H109.788L104.741 102.933H102.805L100.727 93.9723H100.612L99.1009 103H96.267L98.5611 89.1818ZM116.035 103H112.904L119.968 89.1818H123.733L126.203 103H123.072L121.392 92.3395H121.284L116.035 103ZM116.75 97.5685H124.145L123.753 99.8491H116.358L116.75 97.5685ZM136.666 93.1964C136.688 92.6341 136.524 92.2 136.173 91.8942C135.827 91.5883 135.303 91.4354 134.601 91.4354C134.124 91.4354 133.71 91.5028 133.36 91.6378C133.009 91.7682 132.728 91.9504 132.516 92.1843C132.309 92.4137 132.181 92.6791 132.132 92.9805C132.082 93.2279 132.098 93.4438 132.179 93.6282C132.264 93.8126 132.397 93.9723 132.577 94.1072C132.761 94.2377 132.979 94.3524 133.231 94.4513C133.483 94.5458 133.751 94.6268 134.034 94.6942L135.222 94.9911C135.802 95.1261 136.324 95.306 136.787 95.5309C137.255 95.7558 137.646 96.0324 137.961 96.3608C138.28 96.6892 138.505 97.076 138.636 97.5213C138.766 97.9666 138.784 98.4772 138.69 99.0529C138.546 99.8986 138.211 100.632 137.684 101.252C137.158 101.869 136.468 102.348 135.613 102.69C134.758 103.027 133.769 103.196 132.644 103.196C131.529 103.196 130.586 103.025 129.817 102.683C129.048 102.341 128.488 101.835 128.137 101.165C127.791 100.49 127.687 99.6557 127.827 98.6616H130.654C130.604 99.1249 130.672 99.5117 130.856 99.8221C131.045 100.128 131.326 100.36 131.7 100.517C132.073 100.67 132.512 100.746 133.015 100.746C133.515 100.746 133.958 100.674 134.345 100.531C134.736 100.387 135.053 100.186 135.296 99.93C135.539 99.6737 135.687 99.379 135.741 99.0462C135.795 98.7358 135.748 98.4749 135.6 98.2635C135.451 98.0521 135.213 97.8722 134.884 97.7237C134.561 97.5708 134.158 97.4358 133.677 97.3189L132.233 96.9411C131.117 96.6577 130.274 96.2146 129.703 95.6119C129.131 95.0091 128.927 94.1972 129.089 93.1761C129.233 92.3395 129.581 91.6085 130.134 90.9833C130.692 90.3536 131.394 89.8655 132.24 89.5192C133.09 89.1683 134.019 88.9929 135.026 88.9929C136.052 88.9929 136.918 89.1706 137.624 89.5259C138.33 89.8768 138.845 90.3671 139.169 90.9968C139.493 91.6265 139.592 92.3597 139.466 93.1964H136.666Z" fill="white"/>
</g>
<path d="M36.8327 74.4173C36.7372 75.0964 36.5019 75.4362 36.3962 75.5669C35.923 76.1545 35.2727 76.0135 34.7103 75.8917C34.3864 75.8229 34.0872 75.7541 33.7974 75.4218C33.7342 75.353 33.5159 75.0888 33.3154 74.4531C33.131 73.8501 33.0401 73.2179 33.0465 72.5824C33.0434 71.344 33.02 70.1056 33.0098 68.8714C33.0029 67.9935 32.9864 67.4796 33.0225 66.5907C33.0668 65.5222 33.1598 65.1101 33.2515 64.7069C33.4046 64.0361 33.6538 63.5601 33.9841 63.2855C34.6451 62.7352 35.41 63.1342 35.5757 63.2216C35.7834 63.3334 35.9728 63.4817 36.1362 63.6605C36.293 63.8906 36.4223 64.1414 36.5208 64.407C36.6391 64.7214 36.7106 65.0303 36.7916 65.6557C36.9181 66.5907 36.951 67.2436 36.951 67.2436C37.0035 68.2886 36.9871 68.729 36.9991 70.8618C37.0048 72.0004 36.9839 72.5473 36.9358 73.2594C36.9029 73.7396 36.8631 74.138 36.8327 74.4173Z" fill="#384392"/>
</g>
<defs>
<filter id="filter0_d_201_3619" x="-2" y="0" width="168" height="119" filterUnits="userSpaceOnUse" color-interpolation-filters="sRGB">
<feFlood flood-opacity="0" result="BackgroundImageFix"/>
<feColorMatrix in="SourceAlpha" type="matrix" values="0 0 0 0 0 0 0 0 0 0 0 0 0 0 0 0 0 0 127 0" result="hardAlpha"/>
<feOffset dy="4"/>
<feGaussianBlur stdDeviation="2"/>
<feComposite in2="hardAlpha" operator="out"/>
<feColorMatrix type="matrix" values="0 0 0 0 0 0 0 0 0 0 0 0 0 0 0 0 0 0 0.25 0"/>
<feBlend mode="normal" in2="BackgroundImageFix" result="effect1_dropShadow_201_3619"/>
<feBlend mode="normal" in="SourceGraphic" in2="effect1_dropShadow_201_3619" result="shape"/>
</filter>
<filter id="filter1_d_201_3619" x="7.24103" y="88.9929" width="136.414" height="22.2028" filterUnits="userSpaceOnUse" color-interpolation-filters="sRGB">
<feFlood flood-opacity="0" result="BackgroundImageFix"/>
<feColorMatrix in="SourceAlpha" type="matrix" values="0 0 0 0 0 0 0 0 0 0 0 0 0 0 0 0 0 0 127 0" result="hardAlpha"/>
<feOffset dy="4"/>
<feGaussianBlur stdDeviation="2"/>
<feComposite in2="hardAlpha" operator="out"/>
<feColorMatrix type="matrix" values="0 0 0 0 0 0 0 0 0 0 0 0 0 0 0 0 0 0 0.25 0"/>
<feBlend mode="normal" in2="BackgroundImageFix" result="effect1_dropShadow_201_3619"/>
<feBlend mode="normal" in="SourceGraphic" in2="effect1_dropShadow_201_3619" result="shape"/>
</filter>
<clipPath id="clip0_201_3619">
<rect width="160" height="111" fill="white" transform="translate(2)"/>
</clipPath>
</defs>
</svg>
