<svg xmlns="http://www.w3.org/2000/svg" width="131.916" height="29" viewBox="0 0 131.916 29"><defs><style>.a{fill:#005cab;fill-rule:evenodd;}</style></defs><g transform="translate(-92.038 -125.034)"><g transform="translate(92.038 125.034)"><path class="a" d="M128.329,5.314c-7.405,0-11.345,4.153-11.5,9.536A11.834,11.834,0,0,0,104.958,5.17a11.641,11.641,0,0,0-11.676,9.6A9.467,9.467,0,0,0,84.016,5.18a8.214,8.214,0,0,0-5.83,2.4V.073h-5.57V16.793a15.494,15.494,0,0,1-.1,1.716C72.18,21.982,69.842,23.7,67.3,23.7c-2.645,0-5.033-1.25-5.1-5.168-.012-.677-.032-.958-.032-1.438v-6.26h8.671V5.575H62.161V.073H56.515V14.794a11.922,11.922,0,0,0-20.95-5.211V5.314h-.619c-7.275,0-11.206,4.009-11.487,9.254A11.226,11.226,0,0,0,12.442,5.314,9.45,9.45,0,0,0,5.488,8.146V.034H.038v14.1c0,1.041.031,2.022.043,2.961.079,6.523,4.642,11.874,11.712,11.874a11.534,11.534,0,0,0,11.649-9.261v8.7h5.586V17.545c0-.5.028-1.045.044-1.553.1-3.311,2.272-5.283,5.72-5.341a11.918,11.918,0,1,0,21.723,8.742v.015c0,5.724,4.6,9.627,10.133,9.627A8.2,8.2,0,0,0,72.616,26.4v2.009h5.57V16.582c0-.281.013-.508.02-.726.141-3.794,2.365-5.444,4.807-5.444,2.422,0,4.517,1.657,4.6,5.426.019.327.024.546.024.915V28.408l5.646,0V19.566a11.5,11.5,0,0,0,11.678,9.4c6.55,0,10.25-4.192,11.242-8.576h-5.462a6.035,6.035,0,0,1-5.783,3.952,6.373,6.373,0,0,1-6.281-5.46h18.147V28.41h5.586V17.545c0-.5.029-1.045.046-1.553.1-3.361,2.334-5.347,5.872-5.347h.619V5.314h-.619ZM11.793,23.6a6.511,6.511,0,0,1,0-13.021,6.413,6.413,0,0,1,6.511,6.51A6.425,6.425,0,0,1,11.793,23.6Zm33.024,0a6.511,6.511,0,0,1,0-13.021,6.413,6.413,0,0,1,6.511,6.51A6.425,6.425,0,0,1,44.817,23.6Zm54.106-9.127a6.269,6.269,0,0,1,12.087,0H98.923Z" transform="translate(-0.038 -0.034)"/><path class="a" d="M2.526,3.268A2.8,2.8,0,1,0,5.323.491,2.78,2.78,0,0,0,2.526,3.268Zm.365,0A2.433,2.433,0,1,1,5.323,5.7,2.436,2.436,0,0,1,2.891,3.268Z" transform="translate(123.794 22.691)"/><path class="a" d="M3,.891H4.131c.446,0,.6.208.6.584s-.157.615-.6.615H3V.891Zm0,1.57h1.11c.349,0,.495.216.53.6.011.111.029.251.04.386a3.185,3.185,0,0,0,.065.415h.5V3.794a.853.853,0,0,1-.123-.428c-.012-.115-.029-.243-.043-.384a.818.818,0,0,0-.406-.731.821.821,0,0,0,.523-.839c0-.561-.362-.9-1.045-.9H2.556V3.859H3v-1.4Z" transform="translate(125.286 23.767)"/></g><g transform="translate(92.038 125.034)"><path class="a" d="M128.329,5.314c-7.405,0-11.345,4.153-11.5,9.536A11.834,11.834,0,0,0,104.958,5.17a11.641,11.641,0,0,0-11.676,9.6A9.467,9.467,0,0,0,84.016,5.18a8.214,8.214,0,0,0-5.83,2.4V.073h-5.57V16.793a15.494,15.494,0,0,1-.1,1.716C72.18,21.982,69.842,23.7,67.3,23.7c-2.645,0-5.033-1.25-5.1-5.168-.012-.677-.032-.958-.032-1.438v-6.26h8.671V5.575H62.161V.073H56.515V14.794a11.922,11.922,0,0,0-20.95-5.211V5.314h-.619c-7.275,0-11.206,4.009-11.487,9.254A11.226,11.226,0,0,0,12.442,5.314,9.45,9.45,0,0,0,5.488,8.146V.034H.038v14.1c0,1.041.031,2.022.043,2.961.079,6.523,4.642,11.874,11.712,11.874a11.534,11.534,0,0,0,11.649-9.261v8.7h5.586V17.545c0-.5.028-1.045.044-1.553.1-3.311,2.272-5.283,5.72-5.341a11.918,11.918,0,1,0,21.723,8.742v.015c0,5.724,4.6,9.627,10.133,9.627A8.2,8.2,0,0,0,72.616,26.4v2.009h5.57V16.582c0-.281.013-.508.02-.726.141-3.794,2.365-5.444,4.807-5.444,2.422,0,4.517,1.657,4.6,5.426.019.327.024.546.024.915V28.408l5.646,0V19.566a11.5,11.5,0,0,0,11.678,9.4c6.55,0,10.25-4.192,11.242-8.576h-5.462a6.035,6.035,0,0,1-5.783,3.952,6.373,6.373,0,0,1-6.281-5.46h18.147V28.41h5.586V17.545c0-.5.029-1.045.046-1.553.1-3.361,2.334-5.347,5.872-5.347h.619V5.314h-.619ZM11.793,23.6a6.511,6.511,0,0,1,0-13.021,6.413,6.413,0,0,1,6.511,6.51A6.425,6.425,0,0,1,11.793,23.6Zm33.024,0a6.511,6.511,0,0,1,0-13.021,6.413,6.413,0,0,1,6.511,6.51A6.425,6.425,0,0,1,44.817,23.6Zm54.106-9.127a6.269,6.269,0,0,1,12.087,0H98.923Z" transform="translate(-0.038 -0.034)"/><path class="a" d="M2.526,3.268A2.8,2.8,0,1,0,5.323.491,2.78,2.78,0,0,0,2.526,3.268Zm.365,0A2.433,2.433,0,1,1,5.323,5.7,2.436,2.436,0,0,1,2.891,3.268Z" transform="translate(123.794 22.691)"/><path class="a" d="M3,.891H4.131c.446,0,.6.208.6.584s-.157.615-.6.615H3V.891Zm0,1.57h1.11c.349,0,.495.216.53.6.011.111.029.251.04.386a3.185,3.185,0,0,0,.065.415h.5V3.794a.853.853,0,0,1-.123-.428c-.012-.115-.029-.243-.043-.384a.818.818,0,0,0-.406-.731.821.821,0,0,0,.523-.839c0-.561-.362-.9-1.045-.9H2.556V3.859H3v-1.4Z" transform="translate(125.286 23.767)"/></g></g></svg>